<svg width="27" height="33" viewBox="0 0 27 33" fill="none" xmlns="http://www.w3.org/2000/svg">
<path d="M11.9718 14.2122C15.7065 14.2122 18.7341 11.1846 18.7341 7.44984C18.7341 3.7151 15.7065 0.6875 11.9718 0.6875C8.23707 0.6875 5.20947 3.7151 5.20947 7.44984C5.20947 11.1846 8.23707 14.2122 11.9718 14.2122Z" fill="#F1585B"/>
<path d="M1.30345 30.0734H14.1418C13.4207 28.7182 13.1535 27.1672 13.3796 25.6488C13.6057 24.1304 14.3131 22.7246 15.3978 21.6382C16.4825 20.5518 17.8872 19.8422 19.4053 19.6137C20.9234 19.3852 22.4747 19.65 23.8311 20.369C23.4733 17.7877 22.2826 15.3938 20.4399 13.5511C19.9184 13.0269 19.3453 12.5569 18.7291 12.1482C17.9745 13.2422 16.9656 14.1365 15.789 14.7543C14.6123 15.3721 13.3033 15.6949 11.9743 15.6949C10.6454 15.6949 9.3363 15.3721 8.15967 14.7543C6.98305 14.1365 5.97409 13.2422 5.21955 12.1482C3.61381 13.2448 2.29977 14.7165 1.39136 16.4357C0.482956 18.1549 0.00759456 20.0697 0.00649475 22.0141V28.6049C-0.0116041 28.7879 0.00822281 28.9726 0.0647368 29.1476C0.121251 29.3225 0.213238 29.484 0.334951 29.6218C0.456665 29.7596 0.60549 29.8708 0.772129 29.9486C0.938768 30.0263 1.11964 30.0688 1.30345 30.0734Z" fill="#F1585B"/>
<path d="M20.4799 20.7273C19.2973 20.7273 18.1413 21.0779 17.158 21.7348C16.1747 22.3917 15.4082 23.3253 14.9555 24.4178C14.5027 25.5102 14.384 26.7123 14.6143 27.8722C14.8446 29.0321 15.4137 30.0977 16.2495 30.9342C17.0853 31.7708 18.1504 32.3407 19.3101 32.572C20.4698 32.8033 21.6721 32.6856 22.7649 32.2338C23.8577 31.7819 24.792 31.0162 25.4497 30.0335C26.1074 29.0507 26.459 27.895 26.46 26.7125C26.46 25.126 25.8301 23.6044 24.7088 22.4821C23.5874 21.3598 22.0664 20.7286 20.4799 20.7273ZM22.9022 28.2365C23.0207 28.355 23.0872 28.5156 23.0872 28.6831C23.0872 28.8506 23.0207 29.0113 22.9022 29.1298C22.7838 29.2482 22.6231 29.3147 22.4556 29.3147C22.2881 29.3147 22.1274 29.2482 22.009 29.1298L20.495 27.6158L18.9811 29.1298C18.9237 29.1936 18.8539 29.245 18.776 29.2809C18.698 29.3168 18.6136 29.3364 18.5278 29.3386C18.442 29.3407 18.3567 29.3254 18.2771 29.2934C18.1975 29.2615 18.1252 29.2136 18.0647 29.1528C18.0042 29.0919 17.9567 29.0194 17.9252 28.9396C17.8937 28.8597 17.8788 28.7743 17.8815 28.6886C17.8841 28.6028 17.9042 28.5185 17.9406 28.4407C17.9769 28.363 18.0287 28.2935 18.0929 28.2365L19.6068 26.7226L18.0929 25.2086C18.0346 25.1503 17.9883 25.0811 17.9567 25.0049C17.9252 24.9287 17.9089 24.847 17.9089 24.7645C17.9089 24.682 17.9252 24.6004 17.9567 24.5242C17.9883 24.448 18.0346 24.3787 18.0929 24.3204C18.1512 24.2621 18.2204 24.2158 18.2966 24.1843C18.3728 24.1527 18.4545 24.1365 18.537 24.1365C18.6194 24.1365 18.7011 24.1527 18.7773 24.1843C18.8535 24.2158 18.9227 24.2621 18.9811 24.3204L20.495 25.8344L22.009 24.3204C22.066 24.2563 22.1355 24.2045 22.2132 24.1681C22.2909 24.1318 22.3753 24.1116 22.461 24.109C22.5468 24.1064 22.6322 24.1213 22.712 24.1528C22.7918 24.1843 22.8644 24.2317 22.9252 24.2922C22.9861 24.3527 23.0339 24.425 23.0659 24.5046C23.0978 24.5843 23.1132 24.6696 23.1111 24.7554C23.1089 24.8411 23.0893 24.9256 23.0534 25.0035C23.0174 25.0814 22.966 25.1512 22.9022 25.2086L21.3883 26.7226L22.9022 28.2365Z" fill="#F1585B"/>
</svg>
