<svg width="18" height="22" viewBox="0 0 18 22" fill="none" xmlns="http://www.w3.org/2000/svg">
<path d="M0 18.6297C0 20.8188 4.48666 22 8.70834 22C12.93 22 17.4167 20.8188 17.4167 18.6297C17.4167 17.2733 15.6933 16.3042 13.3783 15.763C13.1888 16.0729 13.0068 16.3634 12.8325 16.6345C15.1275 17.1211 16.4389 17.963 16.4389 18.6297C16.4389 19.6287 13.4979 21.0222 8.70834 21.0222C3.91875 21.0222 0.977779 19.6287 0.977779 18.6297C0.977779 17.963 2.28916 17.1211 4.58423 16.6345C4.40979 16.3632 4.22783 16.0727 4.03835 15.763C1.72341 16.3042 0 17.2733 0 18.6297Z" fill="#65CD45"/>
<path d="M2.41699 6.2913C2.41699 10.7746 8.12443 18.6297 8.70829 18.6297C9.29216 18.6297 14.9996 10.7746 14.9996 6.2913C14.9996 4.62274 14.3368 3.02252 13.1569 1.84268C11.9771 0.662831 10.3768 0 8.70829 0C7.03973 0 5.43952 0.662831 4.25967 1.84268C3.07982 3.02252 2.41699 4.62274 2.41699 6.2913ZM11.93 6.2913C11.93 6.92848 11.741 7.55136 11.387 8.08116C11.033 8.61097 10.5299 9.0239 9.94118 9.26774C9.35249 9.51158 8.70472 9.57538 8.07978 9.45107C7.45483 9.32676 6.88079 9.01993 6.43023 8.56937C5.97967 8.11881 5.67283 7.54476 5.54852 6.91982C5.42421 6.29487 5.48801 5.6471 5.73185 5.05842C5.97569 4.46973 6.38862 3.96657 6.91843 3.61257C7.44823 3.25857 8.07111 3.06962 8.70829 3.06962C9.56274 3.06962 10.3822 3.40905 10.9864 4.01323C11.5905 4.61741 11.93 5.43685 11.93 6.2913Z" fill="#65CD45"/>
</svg>
