<svg width="341" height="101" viewBox="0 0 341 101" fill="none" xmlns="http://www.w3.org/2000/svg">
<path d="M64.1808 61.8879C63.6858 62.8781 62.9431 63.6207 62.2005 63.8683C61.7054 64.1158 61.2103 64.1158 60.9628 64.1158H21.6036C27.0496 75.5027 39.1791 83.1765 52.7939 82.1864C66.9038 81.1962 79.0334 70.5519 81.7563 56.442C82.4989 51.9863 82.4989 47.7781 81.7563 43.8174H49.3283L63.1907 57.6797C63.4382 57.9273 63.6858 58.4224 63.9333 58.9174C64.1808 59.4125 64.1808 59.9076 64.1808 60.1551C64.4284 61.1453 64.1808 61.6404 64.1808 61.8879Z" fill="url(#paint0_radial_6933_1097)"/>
<path d="M89.4306 44.0654C89.6782 46.0457 89.9257 48.2736 89.9257 50.5014C89.9257 72.2851 72.3503 89.8606 50.5666 89.8606C32.7436 89.8606 17.6435 77.9786 12.6927 61.6408C12.6927 61.3933 12.6927 61.3933 12.4451 61.1458C10.4648 54.2146 10.2173 46.5408 12.6927 38.6194C17.8911 23.5194 31.2583 12.6275 47.101 11.1423C59.4781 10.1521 70.6175 14.8554 78.5388 22.7768C80.7667 25.2522 79.2814 29.2129 75.8158 29.2129C74.8257 29.2129 73.8355 28.7178 73.0929 27.9751C66.9043 21.5391 57.7453 17.8259 47.5961 18.5685C33.7337 19.8063 21.8517 30.4506 19.1288 44.3129C18.3861 48.7687 18.3861 52.9769 19.1288 56.9375H51.5567L37.6944 43.0752C37.4469 42.8277 37.1993 42.3326 36.9518 41.8375C36.7042 41.3424 36.7042 40.8473 36.7042 40.5998C36.7042 40.1047 36.7042 39.6096 36.9518 39.3621C37.4469 38.3719 37.9419 37.6293 38.9321 37.3817C39.4272 37.1342 39.9223 37.1342 40.1698 37.1342H79.2814H87.4503H99.0848C93.1438 15.3505 73.3404 -0.244636 50.0715 0.0029055C23.5845 0.250447 1.55329 21.539 0.0680371 47.7785C-1.41721 76.9884 21.6042 101 50.5666 101C78.5388 101 101.065 78.4737 101.065 50.5014C101.065 48.2736 100.818 46.2932 100.57 44.0654H89.4306Z" fill="url(#paint1_radial_6933_1097)"/>
<path d="M135.796 65.4072H126.932V71.7724H135.483V75.5298H126.932V88.1401H123.094V61.6499H135.796V65.4072Z" fill="url(#paint2_linear_6933_1097)"/>
<path d="M140.908 79.6646C140.908 77.2512 141.738 75.1981 143.396 73.5052C145.055 71.8124 147.076 70.966 149.459 70.966C151.854 70.966 153.886 71.8182 155.555 73.5224C157.203 75.2267 158.027 77.3198 158.027 79.8018C158.027 82.3067 157.197 84.4056 155.539 86.0984C153.869 87.7798 151.821 88.6204 149.393 88.6204C146.988 88.6204 144.972 87.7626 143.347 86.0469C141.721 84.3541 140.908 82.2267 140.908 79.6646ZM144.698 79.7332C144.698 81.4031 145.126 82.7242 145.983 83.6964C146.862 84.6801 148.02 85.1719 149.459 85.1719C150.909 85.1719 152.068 84.6858 152.936 83.7136C153.803 82.7414 154.237 81.4432 154.237 79.819C154.237 78.1948 153.803 76.8966 152.936 75.9244C152.057 74.9407 150.898 74.4489 149.459 74.4489C148.042 74.4489 146.895 74.9407 146.016 75.9244C145.137 76.908 144.698 78.1776 144.698 79.7332Z" fill="url(#paint3_linear_6933_1097)"/>
<path d="M168.081 71.4293V81.02C168.081 83.7879 169.13 85.1719 171.228 85.1719C173.326 85.1719 174.375 83.7879 174.375 81.02V71.4293H178.082V81.1057C178.082 82.444 177.923 83.5992 177.604 84.5714C177.297 85.4407 176.764 86.2242 176.006 86.9219C174.754 88.0543 173.161 88.6204 171.228 88.6204C169.306 88.6204 167.719 88.0543 166.467 86.9219C165.698 86.2242 165.154 85.4407 164.836 84.5714C164.528 83.7936 164.374 82.6384 164.374 81.1057V71.4293H168.081Z" fill="url(#paint4_linear_6933_1097)"/>
<path d="M185.171 71.4293H188.895V72.9734C190.191 71.6351 191.652 70.966 193.277 70.966C195.144 70.966 196.6 71.578 197.643 72.8018C198.544 73.8427 198.994 75.5412 198.994 77.8974V88.1401H195.271V78.8067C195.271 77.1597 195.051 76.0216 194.612 75.3925C194.183 74.752 193.404 74.4317 192.272 74.4317C191.042 74.4317 190.169 74.8549 189.653 75.7013C189.147 76.5363 188.895 77.9946 188.895 80.0763V88.1401H185.171V71.4293Z" fill="url(#paint5_linear_6933_1097)"/>
<path d="M217.929 59.1621H221.653V88.1401H217.929V86.3901C216.469 87.877 214.816 88.6204 212.97 88.6204C210.774 88.6204 208.95 87.7855 207.5 86.1155C206.062 84.4113 205.342 82.2838 205.342 79.7332C205.342 77.2397 206.062 75.158 207.5 73.4881C208.928 71.8067 210.724 70.966 212.888 70.966C214.766 70.966 216.447 71.7667 217.929 73.368V59.1621ZM209.131 79.7332C209.131 81.3345 209.543 82.6384 210.367 83.645C211.213 84.6629 212.278 85.1719 213.563 85.1719C214.936 85.1719 216.046 84.6801 216.891 83.6964C217.737 82.6784 218.16 81.386 218.16 79.819C218.16 78.252 217.737 76.9595 216.891 75.9415C216.046 74.9464 214.947 74.4489 213.596 74.4489C212.322 74.4489 211.257 74.9521 210.4 75.9587C209.554 76.9767 209.131 78.2348 209.131 79.7332Z" fill="url(#paint6_linear_6933_1097)"/>
<path d="M240.572 71.4293H244.295V88.1401H240.572V86.3901C239.045 87.877 237.403 88.6204 235.645 88.6204C233.427 88.6204 231.592 87.7855 230.143 86.1155C228.704 84.4113 227.984 82.2838 227.984 79.7332C227.984 77.2283 228.704 75.1409 230.143 73.4709C231.581 71.801 233.383 70.966 235.547 70.966C237.414 70.966 239.089 71.7667 240.572 73.368V71.4293ZM231.774 79.7332C231.774 81.3345 232.185 82.6384 233.009 83.645C233.855 84.6629 234.92 85.1719 236.206 85.1719C237.578 85.1719 238.688 84.6801 239.534 83.6964C240.379 82.6784 240.802 81.386 240.802 79.819C240.802 78.252 240.379 76.9595 239.534 75.9415C238.688 74.9464 237.589 74.4489 236.238 74.4489C234.964 74.4489 233.899 74.9521 233.042 75.9587C232.196 76.9767 231.774 78.2348 231.774 79.7332Z" fill="url(#paint7_linear_6933_1097)"/>
<path d="M255.207 75.0322V88.1401H251.5V75.0322H249.918V71.4293H251.5V65.3043H255.207V71.4293H258.09V75.0322H255.207Z" fill="url(#paint8_linear_6933_1097)"/>
<path d="M266.728 71.4293V88.1401H263.021V71.4293H266.728ZM262.461 64.4807C262.461 63.8059 262.697 63.2226 263.169 62.7307C263.641 62.2389 264.207 61.993 264.866 61.993C265.536 61.993 266.107 62.2389 266.579 62.7307C267.052 63.2111 267.288 63.8002 267.288 64.4979C267.288 65.1956 267.052 65.7904 266.579 66.2822C266.118 66.774 265.552 67.02 264.882 67.02C264.212 67.02 263.641 66.774 263.169 66.2822C262.697 65.7904 262.461 65.1899 262.461 64.4807Z" fill="url(#paint9_linear_6933_1097)"/>
<path d="M273.076 79.6646C273.076 77.2512 273.905 75.1981 275.563 73.5052C277.222 71.8124 279.243 70.966 281.626 70.966C284.021 70.966 286.053 71.8182 287.722 73.5224C289.37 75.2267 290.194 77.3198 290.194 79.8018C290.194 82.3067 289.364 84.4056 287.706 86.0984C286.036 87.7798 283.988 88.6204 281.56 88.6204C279.155 88.6204 277.139 87.7626 275.514 86.0469C273.888 84.3541 273.076 82.2267 273.076 79.6646ZM276.865 79.7332C276.865 81.4031 277.293 82.7242 278.15 83.6964C279.029 84.6801 280.187 85.1719 281.626 85.1719C283.076 85.1719 284.235 84.6858 285.103 83.7136C285.97 82.7414 286.404 81.4432 286.404 79.819C286.404 78.1948 285.97 76.8966 285.103 75.9244C284.224 74.9407 283.065 74.4489 281.626 74.4489C280.209 74.4489 279.062 74.9407 278.183 75.9244C277.304 76.908 276.865 78.1776 276.865 79.7332Z" fill="url(#paint10_linear_6933_1097)"/>
<path d="M296.541 71.4293H300.265V72.9734C301.561 71.6351 303.022 70.966 304.647 70.966C306.515 70.966 307.97 71.578 309.013 72.8018C309.914 73.8427 310.364 75.5412 310.364 77.8974V88.1401H306.641V78.8067C306.641 77.1597 306.421 76.0216 305.982 75.3925C305.554 74.752 304.774 74.4317 303.642 74.4317C302.412 74.4317 301.539 74.8549 301.023 75.7013C300.518 76.5363 300.265 77.9946 300.265 80.0763V88.1401H296.541V71.4293Z" fill="url(#paint11_linear_6933_1097)"/>
<path d="M141.597 20.5468L137.637 22.7747C136.894 21.537 136.151 20.7943 135.656 20.2992C134.914 19.8042 134.171 19.5566 132.933 19.5566C131.696 19.5566 130.458 20.0517 129.715 20.7943C128.725 21.537 128.478 22.5271 128.478 23.5173C128.478 25.0025 129.715 26.2402 131.943 27.2304L135.161 28.4681C137.884 29.4583 139.617 30.696 140.855 32.4288C142.092 33.914 142.587 35.8944 142.587 38.1223C142.587 41.0928 141.597 43.5682 139.617 45.5485C137.637 47.5289 135.161 48.519 132.191 48.519C129.468 48.519 126.992 47.7764 125.26 46.0436C123.527 44.3108 122.289 42.0829 122.042 39.1124L126.992 38.1223C127.24 40.1026 127.487 41.3403 128.23 42.0829C129.22 43.5682 130.705 44.0633 132.686 44.0633C134.171 44.0633 135.409 43.5682 136.399 42.578C137.389 41.5878 137.884 40.3501 137.884 38.6173C137.884 37.8747 137.884 37.3796 137.637 36.8845C137.389 36.3895 137.142 35.8944 136.894 35.3993C136.646 34.9042 136.151 34.6567 135.409 34.1616C134.914 33.6665 134.171 33.419 133.428 33.1714L130.458 31.9337C126.002 30.2009 123.774 27.478 123.774 23.7648C123.774 21.2894 124.764 19.3091 126.497 17.8238C128.23 16.091 130.705 15.3484 133.428 15.3484C136.646 15.1009 139.369 16.8337 141.597 20.5468Z" fill="#414042"/>
<path d="M155.212 27.4775V39.112C155.212 42.5776 156.45 44.0628 159.173 44.0628C161.896 44.0628 163.133 42.3301 163.133 39.112V27.4775H167.837V39.112C167.837 40.8448 167.589 42.0825 167.341 43.3202C166.846 44.3104 166.351 45.3006 165.361 46.0432C163.876 47.5284 161.896 48.0235 159.42 48.0235C156.945 48.0235 154.964 47.2809 153.479 46.0432C152.489 45.3006 151.746 44.3104 151.499 43.3202C151.004 42.3301 151.004 41.0923 151.004 39.112V27.4775H155.212Z" fill="#414042"/>
<path d="M181.451 12.625V29.7054C183.431 27.7251 185.412 26.7349 187.887 26.7349C190.61 26.7349 192.838 27.7251 194.571 29.7054C196.304 31.6857 197.294 34.1611 197.294 37.3792C197.294 40.5972 196.304 43.0726 194.571 45.053C192.838 47.0333 190.363 48.0235 187.64 48.0235C185.412 48.0235 183.184 47.0333 181.451 45.3005V47.7759H176.748V12.625H181.451ZM192.59 37.6267C192.59 35.6464 192.095 34.1611 191.105 32.9234C190.115 31.6857 188.63 30.9431 187.145 30.9431C185.412 30.9431 183.927 31.4382 182.936 32.6759C181.946 33.9136 181.451 35.3988 181.451 37.3792C181.451 39.3595 181.946 40.8448 182.936 42.0825C183.927 43.3202 185.412 43.8153 187.145 43.8153C188.877 43.8153 190.115 43.3202 191.105 42.0825C192.095 41.0923 192.59 39.6071 192.59 37.6267Z" fill="#414042"/>
<path d="M238.881 48.2707H232.693L230.217 45.7953C227.494 47.5281 224.524 48.2707 221.306 48.2707C217.098 48.2707 213.384 46.7855 209.919 44.0625C206.453 40.8445 204.473 36.8838 204.473 31.9329C204.473 27.2297 206.206 23.0214 209.671 19.8034C212.889 16.5853 216.85 15.1001 221.306 15.1001C225.266 15.1001 228.98 16.5853 232.198 19.3083C236.158 22.5264 237.891 26.9821 237.891 32.1805C237.891 36.3887 236.406 40.1018 233.188 43.3199L238.881 48.2707ZM225.762 34.9034L230.465 39.6067C232.445 37.3789 233.435 34.9035 233.435 31.6854C233.435 28.2198 232.198 25.2493 229.97 23.0214C227.742 20.7936 224.771 19.5559 221.553 19.5559C218.088 19.5559 215.365 20.7936 213.137 23.0214C210.909 25.2493 209.919 28.2198 209.919 31.6854C209.919 35.151 211.157 37.874 213.384 40.1018C215.86 42.3297 218.583 43.5674 221.553 43.5674C223.534 43.5674 225.514 43.0723 227.247 42.0822L219.821 34.6559H225.762V34.9034Z" fill="#414042"/>
<path d="M251.259 27.4775V39.112C251.259 42.5776 252.496 44.0628 255.219 44.0628C257.942 44.0628 259.18 42.3301 259.18 39.112V27.4775H263.883V39.112C263.883 40.8448 263.636 42.0825 263.388 43.3202C262.893 44.3104 262.398 45.3006 261.408 46.0432C259.923 47.5284 257.942 48.0235 255.467 48.0235C252.991 48.0235 251.011 47.2809 249.526 46.0432C248.536 45.3006 247.793 44.3104 247.545 43.3202C247.05 42.3301 247.05 41.0923 247.05 39.112V27.4775H251.259Z" fill="#414042"/>
<path d="M291.36 38.6169H277.003C277.25 40.3497 277.745 41.5874 278.736 42.5776C279.726 43.5677 280.963 44.0628 282.449 44.0628C283.686 44.0628 284.677 43.8153 285.419 43.3202C286.162 42.8251 286.904 41.8349 287.895 40.3497L291.855 42.5776C291.36 43.5677 290.618 44.5579 289.875 45.3005C289.132 46.0431 288.39 46.5382 287.647 47.0333C286.904 47.5284 285.914 47.7759 285.172 48.0235C284.181 48.271 283.191 48.271 282.201 48.271C279.231 48.271 276.755 47.2809 275.022 45.3005C273.29 43.3202 272.299 40.8448 272.299 37.6267C272.299 34.4087 273.29 31.9333 275.022 29.9529C276.755 27.9726 279.231 26.9824 282.201 26.9824C285.172 26.9824 287.647 27.9726 289.132 29.7054C290.865 31.6857 291.608 34.1611 291.608 37.6267L291.36 38.6169ZM286.657 34.9038C285.914 32.4283 284.429 31.1906 281.954 31.1906C281.458 31.1906 280.963 31.1906 280.468 31.4382C279.973 31.6857 279.478 31.9333 279.231 32.1808C278.736 32.4283 278.488 32.9234 278.24 33.4185C277.993 33.9136 277.745 34.4087 277.498 34.9038H286.657Z" fill="#414042"/>
<path d="M299.777 27.4775H304.48V29.2103C305.223 28.2201 306.213 27.725 306.708 27.4775C307.451 27.23 308.193 26.9824 309.183 26.9824C310.421 26.9824 311.659 27.4775 313.144 28.2201L310.916 32.4283C309.926 31.6857 309.183 31.4382 308.441 31.4382C305.965 31.4382 304.728 33.4185 304.728 37.1316V47.7759H300.024V27.4775H299.777Z" fill="#414042"/>
<path d="M327.006 43.8153L317.847 27.4775H323.293L329.482 39.112L335.175 27.4775H340.373L324.283 58.6678H318.837L327.006 43.8153Z" fill="#414042"/>
<defs>
<radialGradient id="paint0_radial_6933_1097" cx="0" cy="0" r="1" gradientUnits="userSpaceOnUse" gradientTransform="translate(8.21775 -0.619845) scale(112.512)">
<stop offset="0.475" stop-color="#4388DD"/>
<stop offset="0.9988" stop-color="#FF4581"/>
</radialGradient>
<radialGradient id="paint1_radial_6933_1097" cx="0" cy="0" r="1" gradientUnits="userSpaceOnUse" gradientTransform="translate(8.21829 -0.619414) scale(112.512)">
<stop offset="0.475" stop-color="#4388DD"/>
<stop offset="0.9988" stop-color="#FF4581"/>
</radialGradient>
<linearGradient id="paint2_linear_6933_1097" x1="332.538" y1="72.5892" x2="312.459" y2="13.8243" gradientUnits="userSpaceOnUse">
<stop stop-color="#FF4581"/>
<stop offset="1" stop-color="#4388DD"/>
</linearGradient>
<linearGradient id="paint3_linear_6933_1097" x1="332.538" y1="72.5892" x2="312.459" y2="13.8243" gradientUnits="userSpaceOnUse">
<stop stop-color="#FF4581"/>
<stop offset="1" stop-color="#4388DD"/>
</linearGradient>
<linearGradient id="paint4_linear_6933_1097" x1="332.538" y1="72.5892" x2="312.459" y2="13.8243" gradientUnits="userSpaceOnUse">
<stop stop-color="#FF4581"/>
<stop offset="1" stop-color="#4388DD"/>
</linearGradient>
<linearGradient id="paint5_linear_6933_1097" x1="332.538" y1="72.5892" x2="312.459" y2="13.8243" gradientUnits="userSpaceOnUse">
<stop stop-color="#FF4581"/>
<stop offset="1" stop-color="#4388DD"/>
</linearGradient>
<linearGradient id="paint6_linear_6933_1097" x1="332.538" y1="72.5892" x2="312.459" y2="13.8243" gradientUnits="userSpaceOnUse">
<stop stop-color="#FF4581"/>
<stop offset="1" stop-color="#4388DD"/>
</linearGradient>
<linearGradient id="paint7_linear_6933_1097" x1="332.538" y1="72.5892" x2="312.459" y2="13.8243" gradientUnits="userSpaceOnUse">
<stop stop-color="#FF4581"/>
<stop offset="1" stop-color="#4388DD"/>
</linearGradient>
<linearGradient id="paint8_linear_6933_1097" x1="332.538" y1="72.5892" x2="312.459" y2="13.8243" gradientUnits="userSpaceOnUse">
<stop stop-color="#FF4581"/>
<stop offset="1" stop-color="#4388DD"/>
</linearGradient>
<linearGradient id="paint9_linear_6933_1097" x1="332.538" y1="72.5892" x2="312.459" y2="13.8243" gradientUnits="userSpaceOnUse">
<stop stop-color="#FF4581"/>
<stop offset="1" stop-color="#4388DD"/>
</linearGradient>
<linearGradient id="paint10_linear_6933_1097" x1="332.538" y1="72.5892" x2="312.459" y2="13.8243" gradientUnits="userSpaceOnUse">
<stop stop-color="#FF4581"/>
<stop offset="1" stop-color="#4388DD"/>
</linearGradient>
<linearGradient id="paint11_linear_6933_1097" x1="332.538" y1="72.5892" x2="312.459" y2="13.8243" gradientUnits="userSpaceOnUse">
<stop stop-color="#FF4581"/>
<stop offset="1" stop-color="#4388DD"/>
</linearGradient>
</defs>
</svg>
