<svg width="27" height="32" viewBox="0 0 27 32" fill="none" xmlns="http://www.w3.org/2000/svg">
<path d="M11.9721 13.5247C15.7068 13.5247 18.7344 10.4971 18.7344 6.76234C18.7344 3.0276 15.7068 0 11.9721 0C8.23732 0 5.20972 3.0276 5.20972 6.76234C5.20972 10.4971 8.23732 13.5247 11.9721 13.5247Z" fill="#65CD45"/>
<path d="M1.30345 29.3859H14.1418C13.4207 28.0307 13.1535 26.4797 13.3796 24.9613C13.6057 23.4429 14.3131 22.0371 15.3978 20.9507C16.4825 19.8643 17.8872 19.1547 19.4053 18.9262C20.9234 18.6977 22.4747 18.9625 23.8311 19.6815C23.4733 17.1002 22.2826 14.7063 20.4399 12.8636C19.9185 12.3394 19.3453 11.8694 18.7291 11.4607C17.9746 12.5547 16.9656 13.449 15.789 14.0668C14.6123 14.6846 13.3033 15.0074 11.9743 15.0074C10.6454 15.0074 9.3363 14.6846 8.15968 14.0668C6.98306 13.449 5.9741 12.5547 5.21955 11.4607C3.61381 12.5573 2.29977 14.029 1.39136 15.7482C0.482956 17.4674 0.00759457 19.3822 0.00649475 21.3266V27.9174C-0.0116041 28.1004 0.00822281 28.2851 0.0647368 28.4601C0.121251 28.6351 0.213238 28.7965 0.334951 28.9343C0.456665 29.0721 0.60549 29.1834 0.772129 29.2611C0.938769 29.3388 1.11964 29.3813 1.30345 29.3859Z" fill="#65CD45"/>
<path d="M14.5 26.0248C14.501 27.2074 14.8526 28.3631 15.5103 29.3459C16.168 30.3286 17.1023 31.0943 18.1951 31.5462C19.2879 31.998 20.4902 32.1157 21.6499 31.8844C22.8096 31.6531 23.8747 31.0831 24.7105 30.2466C25.5463 29.4101 26.1154 28.3445 26.3457 27.1846C26.5761 26.0247 26.4573 24.8226 26.0046 23.7301C25.5518 22.6377 24.7853 21.704 23.802 21.0472C22.8187 20.3903 21.6627 20.0397 20.4801 20.0397C18.8936 20.041 17.3726 20.6722 16.2512 21.7945C15.1299 22.9168 14.5 24.4384 14.5 26.0248ZM24.048 23.6681C24.1808 23.8162 24.2495 24.0108 24.2391 24.2095C24.2287 24.4081 24.14 24.5945 23.9925 24.7279L19.8493 28.4371C19.7104 28.5609 19.5307 28.6291 19.3447 28.6289C19.1695 28.6305 18.9996 28.5696 18.8652 28.4573L16.9829 26.8878C16.9073 26.8248 16.8449 26.7476 16.7992 26.6605C16.7535 26.5735 16.7254 26.4782 16.7165 26.3803C16.7076 26.2824 16.7181 26.1836 16.7473 26.0897C16.7766 25.9958 16.824 25.9086 16.887 25.8331C16.95 25.7575 17.0272 25.6951 17.1143 25.6494C17.2013 25.6037 17.2966 25.5756 17.3945 25.5667C17.4925 25.5578 17.5912 25.5683 17.6851 25.5975C17.779 25.6268 17.8662 25.6742 17.9417 25.7372L19.3245 26.8878L22.9883 23.6126C23.061 23.5456 23.1463 23.4938 23.2393 23.4603C23.3323 23.4267 23.4311 23.4121 23.5298 23.4173C23.6286 23.4224 23.7253 23.4473 23.8143 23.4904C23.9032 23.5335 23.9827 23.5939 24.048 23.6681Z" fill="#65CD45"/>
</svg>
