<svg width="21" height="16" viewBox="0 0 21 16" fill="currentColor" xmlns="http://www.w3.org/2000/svg">
<path d="M17.8306 1.33262C16.5142 0.728579 15.1025 0.283546 13.6265 0.0286571C13.5996 0.0237378 13.5728 0.0360314 13.5589 0.060619C13.3774 0.383531 13.1762 0.804797 13.0354 1.13591C11.4479 0.898237 9.86847 0.898237 8.31347 1.13591C8.17261 0.797437 7.9642 0.383531 7.78183 0.060619C7.76799 0.0368517 7.74114 0.0245582 7.71426 0.0286571C6.23906 0.282731 4.82736 0.727764 3.5101 1.33262C3.49869 1.33754 3.48892 1.34574 3.48243 1.35639C0.804743 5.3568 0.0712126 9.25888 0.431058 13.1126C0.432686 13.1314 0.44327 13.1495 0.457924 13.1609C2.22459 14.4583 3.9359 15.246 5.61543 15.768C5.64231 15.7762 5.67079 15.7664 5.6879 15.7443C6.08519 15.2017 6.43935 14.6296 6.743 14.028C6.76092 13.9928 6.74381 13.951 6.70719 13.9371C6.14544 13.724 5.61055 13.4642 5.09602 13.1691C5.05532 13.1454 5.05206 13.0872 5.0895 13.0593C5.19778 12.9782 5.30608 12.8937 5.40947 12.8085C5.42818 12.7929 5.45424 12.7896 5.47623 12.7995C8.85648 14.3428 12.516 14.3428 15.8564 12.7995C15.8784 12.7888 15.9044 12.7921 15.9239 12.8077C16.0274 12.8929 16.1356 12.9782 16.2447 13.0593C16.2822 13.0872 16.2797 13.1454 16.239 13.1691C15.7245 13.4699 15.1896 13.724 14.627 13.9363C14.5904 13.9502 14.5741 13.9928 14.592 14.028C14.9022 14.6288 15.2564 15.2009 15.6463 15.7434C15.6626 15.7664 15.6919 15.7762 15.7188 15.768C17.4065 15.246 19.1178 14.4583 20.8844 13.1609C20.8999 13.1495 20.9097 13.1322 20.9113 13.1134C21.342 8.65809 20.19 4.78801 17.8575 1.3572C17.8518 1.34574 17.8421 1.33754 17.8306 1.33262ZM7.24778 10.7661C6.2301 10.7661 5.39155 9.83176 5.39155 8.68433C5.39155 7.5369 6.21383 6.60259 7.24778 6.60259C8.28985 6.60259 9.12028 7.5451 9.10399 8.68433C9.10399 9.83176 8.2817 10.7661 7.24778 10.7661ZM14.1109 10.7661C13.0932 10.7661 12.2547 9.83176 12.2547 8.68433C12.2547 7.5369 13.0769 6.60259 14.1109 6.60259C15.153 6.60259 15.9834 7.5451 15.9671 8.68433C15.9671 9.83176 15.153 10.7661 14.1109 10.7661Z" fill="#4388DD"/>
</svg>
