<svg viewBox="0 0 42 32" fill="none" xmlns="http://www.w3.org/2000/svg">
<path d="M34.9622 2.849C32.3299 1.64117 29.5071 0.751305 26.5557 0.24164C26.502 0.231804 26.4483 0.256385 26.4206 0.30555C26.0576 0.951232 25.6554 1.79358 25.3738 2.45566C22.1994 1.98042 19.0413 1.98042 15.932 2.45566C15.6504 1.77886 15.2337 0.951232 14.869 0.30555C14.8413 0.258026 14.7876 0.233444 14.7339 0.24164C11.7841 0.749677 8.96134 1.63955 6.32739 2.849C6.30459 2.85883 6.28505 2.87523 6.27207 2.89652C0.917878 10.8956 -0.54886 18.698 0.170672 26.4037C0.173928 26.4414 0.195091 26.4775 0.224393 26.5004C3.75694 29.0946 7.17881 30.6696 10.5371 31.7135C10.5909 31.7299 10.6478 31.7102 10.682 31.6659C11.4765 30.5811 12.1846 29.4372 12.7918 28.2342C12.8276 28.1638 12.7934 28.0802 12.7202 28.0524C11.5969 27.6263 10.5274 27.1068 9.49853 26.5168C9.41716 26.4693 9.41064 26.3529 9.48551 26.2972C9.70201 26.1349 9.91857 25.9661 10.1253 25.7957C10.1627 25.7646 10.2148 25.758 10.2588 25.7777C17.0178 28.8636 24.3352 28.8636 31.0145 25.7777C31.0585 25.7564 31.1106 25.7629 31.1496 25.7941C31.3564 25.9645 31.5729 26.1349 31.7911 26.2972C31.8659 26.3529 31.861 26.4693 31.7797 26.5168C30.7508 27.1182 29.6813 27.6263 28.5564 28.0507C28.4832 28.0786 28.4506 28.1638 28.4864 28.2342C29.1066 29.4355 29.8148 30.5794 30.5945 31.6643C30.6271 31.7102 30.6857 31.7299 30.7394 31.7135C34.114 30.6696 37.5359 29.0946 41.0684 26.5004C41.0994 26.4775 41.1189 26.443 41.1222 26.4054C41.9833 17.4967 39.6798 9.75825 35.0159 2.89815C35.0045 2.87523 34.985 2.85883 34.9622 2.849ZM13.8011 21.7118C11.7662 21.7118 10.0895 19.8435 10.0895 17.5492C10.0895 15.2548 11.7337 13.3866 13.8011 13.3866C15.8848 13.3866 17.5453 15.2712 17.5127 17.5492C17.5127 19.8435 15.8685 21.7118 13.8011 21.7118ZM27.5243 21.7118C25.4894 21.7118 23.8127 19.8435 23.8127 17.5492C23.8127 15.2548 25.4569 13.3866 27.5243 13.3866C29.608 13.3866 31.2685 15.2712 31.2359 17.5492C31.2359 19.8435 29.608 21.7118 27.5243 21.7118Z" fill="#4388DD"/>
</svg>
