<svg width="40" height="40" viewBox="0 0 40 40" fill="none" xmlns="http://www.w3.org/2000/svg">
<rect width="40" height="40" rx="20" fill="white"/>
<rect width="40" height="40" rx="20" fill="white"/>
<g clip-path="url(#clip0_2689_22562)">
<path d="M14.9341 27.5011H11.2903V15.8175H14.9341V27.5011ZM13.1103 14.2237C11.9451 14.2237 11 13.2628 11 12.1026C11 11.5454 11.2223 11.0109 11.6181 10.6169C12.0138 10.2228 12.5506 10.0015 13.1103 10.0015C13.6699 10.0015 14.2067 10.2228 14.6024 10.6169C14.9982 11.0109 15.2205 11.5454 15.2205 12.1026C15.2205 13.2628 14.275 14.2237 13.1103 14.2237ZM28.5718 27.5011H24.9358V21.8136C24.9358 20.4581 24.9084 18.7198 23.0413 18.7198C21.1468 18.7198 20.8565 20.1925 20.8565 21.7159V27.5011H17.2166V15.8175H20.7114V17.4112H20.7624C21.2488 16.4933 22.4372 15.5245 24.21 15.5245C27.8978 15.5245 28.5757 17.9425 28.5757 21.0831V27.5011H28.5718Z" fill="#1A202C"/>
</g>
<defs>
<clipPath id="clip0_2689_22562">
<rect width="17.5758" height="20" fill="white" transform="translate(11 10)"/>
</clipPath>
</defs>
</svg>
