<svg width="40" height="40" viewBox="0 0 40 40" fill="none" xmlns="http://www.w3.org/2000/svg">
<rect width="40" height="40" rx="20" fill="white"/>
<g clip-path="url(#clip0_37_5853)">
<path fill-rule="evenodd" clip-rule="evenodd" d="M28.82 16.7033C28.82 16.7033 28.6439 15.4542 28.1045 14.9042C27.4199 14.1819 26.6527 14.1785 26.3011 14.1366C23.7822 13.9531 20.0039 13.9531 20.0039 13.9531H19.9961C19.9961 13.9531 16.2178 13.9531 13.6989 14.1366C13.3467 14.1785 12.5801 14.1819 11.8949 14.9042C11.3555 15.4543 11.18 16.7033 11.18 16.7033C11.18 16.7033 11 18.1706 11 19.6372V21.0126C11 22.4798 11.18 23.9465 11.18 23.9465C11.18 23.9465 11.3555 25.1957 11.8949 25.7457C12.5801 26.4679 13.4795 26.4453 13.88 26.5206C15.32 26.66 20 26.703 20 26.703C20 26.703 23.7822 26.6974 26.3011 26.5139C26.6527 26.4714 27.4199 26.468 28.1045 25.7458C28.6439 25.1957 28.82 23.9466 28.82 23.9466C28.82 23.9466 29 22.4799 29 21.0126V19.6372C29 18.1706 28.82 16.7033 28.82 16.7033ZM18.1415 22.6793L18.1409 17.586L23.0043 20.1415L18.1415 22.6793Z" fill="#1A202C"/>
</g>
<defs>
<clipPath id="clip0_37_5853">
<rect width="18" height="12.6562" fill="white" transform="translate(11 14)"/>
</clipPath>
</defs>
</svg>
