<svg width="40" height="40" viewBox="0 0 40 40" fill="none" xmlns="http://www.w3.org/2000/svg">
<rect width="40" height="40" rx="20" fill="white"/>
<path fill-rule="evenodd" clip-rule="evenodd" d="M19.2024 18.8422C20.3821 17.6978 21.8351 17.1913 23.506 17.104C23.4111 16.089 23.0521 15.2308 22.4665 14.4662C20.8453 12.3493 17.849 11.461 15.1828 12.3319C13.2294 12.97 11.7918 14.1942 11.2064 16.2127C10.5736 18.3947 11.4191 20.514 13.4249 21.9302C13.7373 22.151 13.7846 22.3398 13.6825 22.6789C13.5868 22.9974 13.5197 23.3246 13.4476 23.6769C13.4152 23.835 13.3818 23.9981 13.3442 24.1678C13.5328 24.0499 13.7129 23.9356 13.8875 23.8247C14.3244 23.5472 14.7272 23.2915 15.1422 23.0573C15.3172 22.9585 15.5624 22.9338 15.769 22.9512C16.1954 22.9871 16.6201 23.0426 17.0653 23.1009C17.2448 23.1243 17.4276 23.1483 17.6152 23.1715C17.4665 21.4152 18.0106 19.9984 19.2024 18.8422ZM15.0746 15.6535C15.4854 15.6655 15.8312 16.025 15.8158 16.4241C15.8003 16.8331 15.4483 17.1549 15.0283 17.1442C14.6047 17.1335 14.2835 16.7969 14.2959 16.3769C14.3082 15.9625 14.6541 15.6411 15.0746 15.6535ZM19.0748 16.4126C19.0675 16.012 19.4158 15.6608 19.8281 15.6532C20.2476 15.6455 20.5878 15.9739 20.5914 16.3902C20.5954 16.8142 20.273 17.1426 19.848 17.1477C19.4241 17.1528 19.0823 16.8279 19.0748 16.4126ZM26.7805 27.2818C26.9375 27.3646 27.0965 27.4485 27.2597 27.5211C27.2482 27.4756 27.2397 27.4301 27.2314 27.3856C27.2141 27.2925 27.1976 27.2037 27.1563 27.1285C26.8258 26.526 27.0112 26.1499 27.5263 25.6928C29.3063 24.1136 29.4777 21.6182 28.0196 19.7384C26.3487 17.5841 22.8732 17.0665 20.5033 18.6191C17.8368 20.366 17.5075 23.6346 19.8122 25.7663C21.024 26.887 22.4937 27.3442 24.1341 27.1764C24.3564 27.1536 24.5791 27.0897 24.8002 27.0262C25.1148 26.9359 25.4262 26.8465 25.7285 26.8781C26.0859 26.9154 26.4283 27.096 26.7805 27.2818ZM21.8639 21.0939C21.8512 21.4266 21.5738 21.6902 21.2369 21.6898C20.9025 21.6894 20.6232 21.4213 20.6118 21.0898C20.5996 20.7428 20.8922 20.4432 21.2414 20.4448C21.5941 20.4462 21.8774 20.7417 21.8639 21.0939ZM24.5016 21.0417C24.515 20.7114 24.7927 20.4439 25.1195 20.4462C25.4673 20.4486 25.7419 20.7409 25.7288 21.0948C25.7165 21.4311 25.4494 21.6867 25.1114 21.6856C24.7619 21.6848 24.4875 21.3948 24.5016 21.0417Z" fill="#1A202C"/>
</svg>
