<svg width="32" height="32" viewBox="0 0 32 32" fill="none" xmlns="http://www.w3.org/2000/svg">
<circle cx="16" cy="16" r="16" fill="#4388DD"/>
<path d="M22.2841 9.89258H21.2126C21.1341 9.89258 21.0698 9.95686 21.0698 10.0354V19.2854H12.3912V17.9819C12.3912 17.8622 12.2519 17.7944 12.1591 17.8694L9.62512 19.8694C9.60805 19.8827 9.59424 19.8998 9.58474 19.9193C9.57525 19.9388 9.57031 19.9602 9.57031 19.9819C9.57031 20.0035 9.57525 20.0249 9.58474 20.0444C9.59424 20.0639 9.60805 20.081 9.62512 20.0944L12.1591 22.0944C12.2537 22.1694 12.3912 22.1015 12.3912 21.9819V20.6426H21.2841C21.9144 20.6426 22.4269 20.1301 22.4269 19.4997V10.0354C22.4269 9.95686 22.3626 9.89258 22.2841 9.89258Z" fill="white"/>
</svg>
