<svg width="40" height="40" viewBox="0 0 40 40" fill="none" xmlns="http://www.w3.org/2000/svg">
<rect width="40" height="40" rx="20" fill="white"/>
<path d="M11.3759 14.0953C13.8463 16.1875 18.1811 19.8683 19.4552 21.016C19.6262 21.1709 19.8097 21.2496 20.0001 21.2496C20.1902 21.2496 20.3733 21.1716 20.5439 21.0175C21.8191 19.8687 26.1539 16.1875 28.6244 14.0953C28.7782 13.9653 28.8016 13.7368 28.6771 13.5779C28.3893 13.2106 27.9601 13 27.5001 13H12.5001C12.0402 13 11.6109 13.2106 11.3231 13.5779C11.1986 13.7368 11.222 13.9653 11.3759 14.0953Z" fill="#1A202C"/>
<path d="M28.7825 15.2293C28.6496 15.1674 28.4932 15.189 28.3826 15.2835C25.6429 17.606 22.1464 20.583 21.0463 21.5743C20.4288 22.1316 19.5719 22.1316 18.953 21.5735C17.7804 20.517 13.8538 17.179 11.6174 15.2835C11.5061 15.189 11.3493 15.1681 11.2175 15.2293C11.085 15.2908 11 15.4234 11 15.5695V25.0002C11 25.8275 11.6727 26.5002 12.5 26.5002H27.5C28.3273 26.5002 29 25.8275 29 25.0002V15.5695C29 15.4234 28.915 15.2905 28.7825 15.2293Z" fill="#1A202C"/>
</svg>
